<?xml version="1.0" encoding="UTF-8" standalone="no"?>
<!-- Copyright 2017 mathsisfun.com -->
<svg xmlns="http://www.w3.org/2000/svg" width="208.8" height="229.1" version="1.0">
<defs/>
<rect x="62.6" y="146.2" width="83" height="82.7" style="color:black; overflow:visible; fill:#0071d1; stroke-width:5.3;"/>
<rect x="-145.9" y="-62.8" width="62.3" height="62.3" style="color:black; overflow:visible; fill:#fada47; stroke:black; stroke-width:0.17; stroke-linejoin:round;" transform="matrix(0,-1,-1,0,0,0)"/>
<g transform="matrix(0,-0.342831,-0.578648,0,727.606,394.591)">
<path style="fill:#fada47; stroke:black; stroke-width:1.19px;" d="m 725,1256.7 180.8,0.2"/>
<path style="fill:#fada47; stroke:black; stroke-width:1.19px;" d="m 725,1220.8 180.8,0.2"/>
<path style="fill:#fada47; stroke:black; stroke-width:1.19px;" d="m 725,1184.8 180.8,0.2"/>
<path style="fill:#fada47; stroke:black; stroke-width:1.19px;" d="m 725,1148.9 180.8,0.2"/>
</g>
<g transform="matrix(0.342844,0,0,-0.578626,-247.978,811.069)">
<path style="fill:#fada47; stroke:black; stroke-width:1.19px;" d="m 725,1256.7 180.8,0.2"/>
<path style="fill:#fada47; stroke:black; stroke-width:1.19px;" d="m 725,1220.8 180.8,0.2"/>
<path style="fill:#fada47; stroke:black; stroke-width:1.19px;" d="m 725,1184.8 180.8,0.2"/>
<path style="fill:#fada47; stroke:black; stroke-width:1.19px;" d="m 725,1148.9 180.8,0.2"/>
</g>
<g transform="matrix(0,-0.575391,-0.575412,0,744.245,633.582)">
<g transform="matrix(0.797875,0,0,1,123.889,106.304)">
<path style="fill:white; stroke:black; stroke-width:1.03px;" d="M 726.2,934.2 907,934.3"/>
<path style="fill:white; stroke:black; stroke-width:1.03px;" d="M 726.2,1077.8 907,1078"/>
<path style="fill:white; stroke:black; stroke-width:1.03px;" d="M 726.2,1041.9 907,1042.1"/>
<path style="fill:white; stroke:black; stroke-width:1.03px;" d="M 726.2,1006 907,1006.2"/>
<path style="fill:white; stroke:black; stroke-width:1.03px;" d="M 726.2,970.1 907,970.2"/>
</g>
<g transform="matrix(0,-0.797875,1,0,-230.642,1763.92)">
<path style="fill:white; stroke:black; stroke-width:1.03px;" d="M 726.2,934.2 907,934.3"/>
<path style="fill:white; stroke:black; stroke-width:1.03px;" d="M 726.2,1077.8 907,1078"/>
<path style="fill:white; stroke:black; stroke-width:1.03px;" d="M 726.2,1041.9 907,1042.1"/>
<path style="fill:white; stroke:black; stroke-width:1.03px;" d="M 726.2,1006 907,1006.2"/>
<path style="fill:white; stroke:black; stroke-width:1.03px;" d="M 726.2,970.1 907,970.2"/>
</g>
</g>
<g transform="matrix(0.345803,-0.459895,-0.459916,-0.345788,227.38,721.227)">
<g>
<g>
<g>
<rect x="715.3" y="713.1" width="180.8" height="180.8" style="color:black; overflow:visible; fill:#d83e24; stroke:black; stroke-width:0.37; stroke-linejoin:round;" transform="rotate(0.051585)"/>
<g>
<path style="fill:#d83e24; stroke:black; stroke-width:0.92px;" d="m 713.9,893.9 180.8,0.2"/>
<path style="fill:#d83e24; stroke:black; stroke-width:0.92px;" d="m 713.9,714.3 180.8,0.2"/>
<path style="fill:#d83e24; stroke:black; stroke-width:0.92px;" d="m 713.9,857.9 180.8,0.2"/>
<path style="fill:#d83e24; stroke:black; stroke-width:0.92px;" d="m 713.9,822 180.8,0.2"/>
<path style="fill:#d83e24; stroke:black; stroke-width:0.92px;" d="m 713.9,786.1 180.8,0.2"/>
<path style="fill:#d83e24; stroke:black; stroke-width:0.92px;" d="m 713.9,750.2 180.8,0.2"/>
</g>
<g transform="rotate(-90,804.346,804.155)">
<path style="fill:#d83e24; stroke:black; stroke-width:0.92px;" d="m 713.9,893.9 180.8,0.2"/>
<path style="fill:#d83e24; stroke:black; stroke-width:0.92px;" d="m 713.9,714.3 180.8,0.2"/>
<path style="fill:#d83e24; stroke:black; stroke-width:0.92px;" d="m 713.9,857.9 180.8,0.2"/>
<path style="fill:#d83e24; stroke:black; stroke-width:0.92px;" d="m 713.9,822 180.8,0.2"/>
<path style="fill:#d83e24; stroke:black; stroke-width:0.92px;" d="m 713.9,786.1 180.8,0.2"/>
<path style="fill:#d83e24; stroke:black; stroke-width:0.92px;" d="m 713.9,750.2 180.8,0.2"/>
</g>
</g>
</g>
</g>
</g>
<path style="overflow:visible; fill:#005c94; stroke:#0e232e; stroke-width:1.82; stroke-linecap:square; stroke-linejoin:bevel;" d="M 145.8,145.9 H 62.8 V 83.6 Z"/>
<text x="22" y="127.1" style="font-family:Arial; font-size:33.9px; color:black; overflow:visible; fill:black; stroke-width:0.53px;">9</text>
<text x="115.6" y="84.9" style="font-family:Arial; font-size:33.9px; color:black; overflow:visible; fill:white; stroke-width:0.53px;">25</text>
<text x="84" y="199.6" style="font-family:Arial; font-size:33.9px; color:black; overflow:visible; fill:white; stroke-width:0.53px;">16</text>
<text x="64.5" y="126.5" style="font-family:Arial; font-size:19.8px; color:black; overflow:visible; fill:#fce94f; stroke-width:0.53px;">3</text>
<text x="96.7" y="143.8" style="font-family:Arial; font-size:19.8px; color:black; overflow:visible; fill:#fce94f; stroke-width:0.53px;">4</text>
<text x="86.2" y="124.3" style="font-family:Arial; font-size:19.8px; color:black; overflow:visible; fill:#fce94f; stroke-width:0.53px;">5</text>
</svg>
